<?xml version="1.0" encoding="UTF-8" standalone="no"?>
<!-- Created with Inkscape (http://www.inkscape.org/) -->

<svg
   xmlns:dc="http://purl.org/dc/elements/1.1/"
   xmlns:cc="http://creativecommons.org/ns#"
   xmlns:rdf="http://www.w3.org/1999/02/22-rdf-syntax-ns#"
   xmlns:svg="http://www.w3.org/2000/svg"
   xmlns="http://www.w3.org/2000/svg"
   xmlns:sodipodi="http://sodipodi.sourceforge.net/DTD/sodipodi-0.dtd"
   xmlns:inkscape="http://www.inkscape.org/namespaces/inkscape"
   id="svg3064"
   version="1.1"
   inkscape:version="0.48.2 r9819"
   width="683"
   height="606"
   sodipodi:docname="sign-new.svg">
  <metadata
     id="metadata3070">
    <rdf:RDF>
      <cc:Work
         rdf:about="">
        <dc:format>image/svg+xml</dc:format>
        <dc:type
           rdf:resource="http://purl.org/dc/dcmitype/StillImage" />
        <dc:title />
      </cc:Work>
    </rdf:RDF>
  </metadata>
  <defs
     id="defs3068">
    <inkscape:perspective
       sodipodi:type="inkscape:persp3d"
       inkscape:vp_x="0 : 0.5 : 1"
       inkscape:vp_y="0 : 1000 : 0"
       inkscape:vp_z="1 : 0.5 : 1"
       inkscape:persp3d-origin="0.5 : 0.33333333 : 1"
       id="perspective5210" />
    <inkscape:perspective
       sodipodi:type="inkscape:persp3d"
       inkscape:vp_x="0 : 0.5 : 1"
       inkscape:vp_y="0 : 1000 : 0"
       inkscape:vp_z="1 : 0.5 : 1"
       inkscape:persp3d-origin="0.5 : 0.33333333 : 1"
       id="perspective4784" />
    <inkscape:perspective
       id="perspective4268"
       inkscape:persp3d-origin="372.04724 : 350.78739 : 1"
       inkscape:vp_z="744.09448 : 526.18109 : 1"
       inkscape:vp_y="0 : 1000 : 0"
       inkscape:vp_x="0 : 526.18109 : 1"
       sodipodi:type="inkscape:persp3d" />
  </defs>
  <sodipodi:namedview
     pagecolor="#ffffff"
     bordercolor="#666666"
     borderopacity="1"
     objecttolerance="10"
     gridtolerance="10"
     guidetolerance="10"
     inkscape:pageopacity="0"
     inkscape:pageshadow="2"
     inkscape:window-width="1280"
     inkscape:window-height="752"
     id="namedview3066"
     showgrid="false"
     inkscape:zoom="0.70710678"
     inkscape:cx="344.33536"
     inkscape:cy="291.38651"
     inkscape:window-x="0"
     inkscape:window-y="0"
     inkscape:window-maximized="1"
     inkscape:current-layer="svg3064" />
  <g
     transform="matrix(1.215618,0,0,1.1696525,86.664722,-181.10526)"
     id="layer1"
     inkscape:label="Capa 1">
    <path
       sodipodi:nodetypes="ccscccscc"
       style="fill:#000000;fill-opacity:1;stroke:none"
       d="m 427.46133,265.21091 -21.9395,6.53242 c -13.23773,3.94012 -21.67359,6.75402 -21.29239,7.0992 0.34704,0.31448 8.80916,4.56097 18.80973,9.4477 l 17.9592,14.49882 50.05645,-19.72142 c 0,-0.21111 -4.80295,-2.29108 -10.62706,-4.61207 -5.82461,-2.32058 -15.63118,-6.23793 -21.78684,-8.7225 l -11.17959,-4.52215 z"
       id="path6177"
       inkscape:connector-curvature="0" />
    <path
       sodipodi:nodetypes="ccccsccssccccsssssccccsccssscccccccsccccc"
       id="path6179"
       d="m 344.03297,180.79982 c -0.3794,0.0455 -0.75935,0.16635 -1.12381,0.28081 l -165.87603,55.4608 c -0.33338,0.5846 -0.77624,3.0957 -1.06771,3.70862 -0.12417,0.39944 -0.13843,0.63748 -0.16913,0.84264 -0.063,0.40954 -0.10971,0.62659 -0.11149,0.7868 l 0,0.56183 c 0.0178,0.22259 0.0414,0.28893 0.0557,0.39349 0.0251,0.20893 0.0828,0.40083 0.11149,0.61808 0.0612,0.43429 0.16358,0.96958 0.28106,1.68568 l 28.99458,162.05488 c 0.25085,1.36229 1.00731,2.6626 2.07898,3.54009 l 1.79811,1.46111 c 33.85418,26.33425 65.09713,54.48983 99.00867,81.02745 0.48441,0.37805 0.84672,0.70838 1.18009,0.95513 0.16536,0.12476 0.29454,0.19606 0.50563,0.33746 0.10437,0.0713 0.19645,0.19209 0.44954,0.33685 0.12576,0.0713 0.34199,0.13467 0.67428,0.28102 0.32349,0.1406 0.5398,0.50044 2.41631,0.44954 l 0,0.0554 0.1115,0 0,-0.0554 c 0.14377,-0.0218 1.64635,-0.19804 2.30393,-0.50578 0.69012,-0.32122 1.18477,-0.74957 1.57336,-1.12386 l 157.11019,-86.30947 c 1.31552,-1.70806 1.04562,-2.01878 1.12384,-2.3598 0.081,-0.34062 0.0899,-0.50598 0.11149,-0.67431 0.0432,-0.33706 0.0396,-0.58143 0.0556,-0.84304 0.036,-0.52281 0.0378,-1.08147 0.0557,-1.79797 l -4.04253,-114.17906 -0.228,-4.83367 -3.22527,0.62045 -47.09063,18.42052 c -0.6493,-2.56793 -0.73669,-2.9442 -0.0935,-4.16331 l 20.72741,-26.22196 c -0.14378,-0.36775 18.2674,-9.16867 18.14567,-9.54751 -1.69006,-5.25172 5.21597,-4.86516 5.13056,-10.57513 l -4.15815,-31.24217 -114.51396,-39.22144 c -0.7545,-0.22576 -1.52068,-0.25369 -2.30376,-0.16833 l 0,-0.0554 z"
       style="fill:#000000;fill-opacity:1;stroke:none"
       inkscape:connector-curvature="0" />
    <path
       style="fill:#000000;fill-opacity:1;stroke:none"
       d="m 344.65098,154.50241 a 2.0725127,2.0725127 0 0 0 -0.56191,0.1109 l -34.61369,12.7553 a 2.0725127,2.0725127 0 0 0 -0.56191,3.59614 l 23.43177,18.65539 a 2.0725127,2.0725127 0 0 0 1.91031,0.33746 l 33.99569,-11.06982 a 2.0725127,2.0725127 0 0 0 0.78666,-3.5399 l -22.81356,-20.34127 a 2.0725127,2.0725127 0 0 0 -1.57336,-0.50579 z"
       id="path6181"
       inkscape:connector-curvature="0" />
    <path
       sodipodi:nodetypes="ccccc"
       id="path6183"
       d="m 256.94257,213.94749 3.17422,34.26539 -33.7907,-22.77058 2.33395,-31.79054 28.28253,20.29573 z"
       style="fill:#000000;fill-opacity:1;stroke:none"
       inkscape:connector-curvature="0" />
    <path
       style="fill:#000000;fill-opacity:1;stroke:none"
       d="m 314.31213,193.15073 -57.36956,20.79676 3.17422,34.26539 57.4242,-20.78903 -3.22906,-34.27312 z"
       id="path6185"
       sodipodi:nodetypes="ccccc"
       inkscape:connector-curvature="0" />
    <path
       sodipodi:nodetypes="cccccc"
       id="path6187"
       d="m 318.35086,239.54742 3.09437,33.13975 -40.47229,-10.16262 -3.06471,-33.16748 40.44245,10.19035 0,0 z"
       style="fill:#000000;fill-opacity:1;stroke:none"
       inkscape:connector-curvature="0" />
    <path
       style="fill:#000000;fill-opacity:1;stroke:none"
       d="m 318.35086,239.54742 3.09437,33.13975 41.47765,-27.51771 -3.08843,-33.17738 -41.48377,27.55534 1.8e-4,0 0,0 z"
       id="path6189"
       sodipodi:nodetypes="ccccccc"
       inkscape:connector-curvature="0" />
    <path
       sodipodi:nodetypes="ccccc"
       id="path6191"
       d="m 308.30427,169.56662 25.39872,18.40685 2.8759,29.90682 -33.49833,-21.59306 5.22371,-26.72061 z"
       style="fill:#000000;fill-opacity:1;stroke:none"
       inkscape:connector-curvature="0" />
    <path
       style="fill:#000000;fill-opacity:1;stroke:none"
       d="m 333.70299,187.97347 2.8759,29.90682 23.18686,-12.867 9.73068,-28.21816 -35.79344,11.17834 z"
       id="path6193"
       sodipodi:nodetypes="ccccc"
       inkscape:connector-curvature="0" />
    <path
       style="fill:#000000;fill-opacity:1;stroke:none"
       d="m 375.44369,180.40632 a 2.2136219,2.2136219 0 0 0 -0.44954,0.11288 l -35.8499,13.1486 a 2.2136219,2.2136219 0 0 0 -0.44952,3.93359 l 30.34317,20.17255 a 2.2136219,2.2136219 0 0 0 2.07898,0.16833 l 40.1206,-16.2952 a 2.2136219,2.2136219 0 0 0 0.1115,-3.98963 l -34.6137,-17.02595 a 2.2136219,2.2136219 0 0 0 -1.2923,-0.22478 z"
       id="path6195"
       inkscape:connector-curvature="0" />
    <path
       sodipodi:nodetypes="cccccccscccc"
       style="fill:#000000;fill-opacity:1;stroke:none"
       d="m 290.37042,180.74377 c -0.13308,0.0198 -0.26378,0.0277 -0.39344,0.0554 l -59.2252,10.17054 c -2.05793,0.36558 -2.86582,3.52366 -1.23638,4.83267 l 25.73568,20.28484 c 0.72572,0.58638 1.76199,0.76264 2.64089,0.44954 l 56.97775,-14.7222 c 1.03015,-0.383 1.77205,-1.43833 1.78391,-2.53743 0.0178,-1.09891 -0.70667,-2.17008 -1.72816,-2.57586 L 291.43778,180.9679 c -0.33607,-0.14655 -0.70162,-0.2222 -1.06773,-0.22477 l 3.7e-4,3.9e-4 z"
       id="path6197"
       inkscape:connector-curvature="0" />
    <path
       sodipodi:nodetypes="ccccc"
       id="path6199"
       d="m 410.3913,199.60493 2.86025,30.97759 -40.11789,16.27599 -2.85738,-30.9366 40.11519,-16.31698 z"
       style="fill:#000000;fill-opacity:1;stroke:none"
       inkscape:connector-curvature="0" />
    <path
       style="fill:#000000;fill-opacity:1;stroke:none"
       d="m 417.64308,191.0266 a 2.0105252,2.0105252 0 0 0 -0.95515,0.28101 l -36.80524,22.42026 a 2.0105252,2.0105252 0 0 0 0.61819,3.70842 l 38.32232,8.5411 a 2.0105252,2.0105252 0 0 0 1.46095,-0.22477 l 42.8176,-24.38696 a 2.0105252,2.0105252 0 0 0 -0.73058,-3.70862 l -44.33465,-6.5742 a 2.0105252,2.0105252 0 0 0 -0.39344,-0.0555 z"
       id="path6201"
       inkscape:connector-curvature="0" />
    <path
       sodipodi:nodetypes="ccccccc"
       id="path6203"
       d="m 419.25438,223.98317 42.94129,-25.08127 c 0.66297,0.0772 1.17095,-0.64798 1.69347,0.30042 l 1.31963,58.2935 c 0.0449,2.09443 0.20427,3.51435 -2.22228,4.59741 l -38.60498,24.74659 -5.12713,-62.85665 z"
       style="fill:#000000;fill-opacity:1;stroke:none"
       inkscape:connector-curvature="0" />
    <path
       sodipodi:nodetypes="ccccc"
       style="fill:#ffffff;fill-opacity:1;stroke:none"
       d="m 344.79177,156.60515 -34.56946,12.72343 23.41719,18.63975 34.01583,-11.0324 -22.86356,-20.33078 z"
       id="path6205"
       inkscape:connector-curvature="0" />
    <path
       style="fill:#ffffff;fill-opacity:1;stroke:none"
       d="m 181.62911,241.97593 c -0.079,0.10694 2.0574,12.40439 4.73514,27.34066 4.21138,23.48926 5.01711,27.29987 6.02963,28.08647 1.38132,1.07316 26.26146,13.78807 26.89025,13.74311 0.23825,-0.0198 -1.4687,-12.24437 -3.77802,-27.16045 -2.30932,-14.91647 -4.35574,-27.46285 -4.55479,-27.8815 -0.34272,-0.72204 -29.01438,-14.53703 -29.32114,-14.12829 z"
       id="path6207"
       inkscape:connector-curvature="0" />
    <path
       style="fill:#ffffff;fill-opacity:1;stroke:none"
       d="m 215.66256,257.76832 0.13665,2.07918 c 0.0755,1.13831 2.01929,13.75856 4.32231,28.0528 l 4.18619,25.99342 15.71408,7.99294 c 8.64263,4.39798 15.74411,7.95273 15.78007,7.90441 0.036,-0.0475 -1.53434,-12.74699 -3.49589,-28.23044 l -3.56531,-28.16113 -16.53977,-7.81549 -16.53995,-7.81549 z"
       id="path6209"
       inkscape:connector-curvature="0" />
    <path
       style="fill:#ffffff;fill-opacity:1;stroke:none"
       d="m 412.39528,247.10368 c -3.77585,0.94384 -57.38806,21.17045 -58.05049,21.92992 -0.19923,0.23071 0.66477,9.81309 1.93297,21.30591 1.26876,11.49302 2.62021,24.34418 3.00825,28.5574 0.3848,4.21381 0.95013,7.61587 1.23729,7.56517 0.29075,-0.0416 12.98724,-5.23865 28.21186,-11.53223 15.22428,-6.29339 27.78662,-11.58887 27.92059,-11.7675 0.42166,-0.56243 -3.55938,-55.72221 -4.04827,-56.08917 -0.0287,-0.0218 -0.0935,-0.0198 -0.21291,0.0297 z"
       id="path6211"
       inkscape:connector-curvature="0" />
    <path
       style="fill:#ffffff;fill-opacity:1;stroke:none"
       d="m 252.80583,275.37333 3.796,28.10845 c 2.84641,21.10748 4.00692,28.29222 4.6546,28.85683 1.04759,0.91472 33.23831,17.41252 33.9029,17.37469 0.25947,-0.0198 -0.99669,-10.29589 -2.78672,-22.84703 -1.79199,-12.55033 -3.45742,-25.5619 -3.71203,-28.91207 l -0.4542,-6.09298 -1.73806,-0.38538 c -0.9494,-0.21388 -8.10176,-3.5494 -15.88832,-7.41368 -7.78689,-3.86427 -14.95689,-7.40259 -15.95232,-7.85985 l -1.82131,-0.82898 z"
       id="path6213"
       inkscape:connector-curvature="0" />
    <path
       style="fill:#ffffff;fill-opacity:1;stroke:none"
       d="m 349.211,271.07357 c -2.89065,0.38776 -55.23895,20.86607 -55.82712,21.83031 -0.4927,0.80799 0.3001,7.64954 3.4182,29.48916 2.23363,15.64405 4.27233,28.41936 4.5273,28.37995 0.25604,-0.0356 12.53537,-5.04378 27.29951,-11.12448 14.76395,-6.08069 27.03949,-11.32885 27.26355,-11.65422 0.22422,-0.32498 -0.89673,-11.95366 -2.48159,-25.84074 -1.58484,-13.88688 -2.92499,-26.59723 -2.98306,-28.2441 -0.0917,-2.5717 -0.26378,-2.96638 -1.21679,-2.83588 z"
       id="path6215"
       inkscape:connector-curvature="0" />
    <path
       style="fill:#ffffff;fill-opacity:1;stroke:none"
       d="m 192.8756,303.13561 c -0.37617,0.50183 7.78296,46.99971 8.71402,49.66109 0.55615,1.58964 3.04833,3.44266 13.90625,10.31016 l 13.23285,8.36682 -1.07616,-8.65714 c -0.59483,-4.7596 -2.50029,-17.10872 -4.23617,-27.45135 l -3.16145,-18.81382 -13.54052,-6.9172 c -7.44707,-3.80289 -13.67106,-6.72075 -13.83757,-6.49876 z"
       id="path6217"
       inkscape:connector-curvature="0" />
    <path
       style="fill:#ffffff;fill-opacity:1;stroke:none"
       d="m 225.17942,319.29338 c -0.0594,0.1307 1.79524,12.57509 4.14377,27.64286 3.28173,21.15538 4.45124,27.54422 5.15644,28.07239 0.5024,0.37666 7.40608,4.79722 15.33954,9.80872 l 14.42752,9.10709 -1.52911,-13.48309 c -0.84116,-7.41328 -2.51863,-20.66031 -3.72587,-29.42497 l -2.19353,-15.9225 -15.75813,-8.0264 c -8.66637,-4.41086 -15.80219,-7.9058 -15.86063,-7.7741 z"
       id="path6219"
       inkscape:connector-curvature="0" />
    <path
       style="fill:#ffffff;fill-opacity:1;stroke:none"
       d="m 467.70456,287.10241 c -0.72735,0.10496 -46.10652,18.63144 -46.36078,18.93483 -0.13664,0.16437 3.80895,58.82204 4.09216,60.83468 0.0935,0.65847 0.48045,0.98562 0.90084,0.76244 0.40495,-0.21507 9.90923,-4.35581 21.12065,-9.19304 11.21142,-4.83742 20.70871,-9.07478 21.1095,-9.40926 0.49178,-0.41053 0.58852,-9.93072 0.27691,-29.26419 -0.25388,-15.75733 -0.46194,-29.57035 -0.4436,-30.70549 0.0216,-1.35219 -0.21162,-2.02472 -0.69568,-1.95997 z"
       id="path6221"
       inkscape:connector-curvature="0" />
    <path
       style="fill:#ffffff;fill-opacity:1;stroke:none"
       d="m 416.9972,307.76669 -27.88155,11.4849 c -15.33774,6.31735 -28.00492,11.62591 -28.1342,11.798 -0.25875,0.34498 4.79953,48.1574 5.9942,56.68246 l 0.73741,5.33965 26.56766,-11.53521 c 14.61435,-6.34686 26.71442,-11.72968 26.88398,-11.95603 0.29957,-0.39904 -3.24595,-54.97282 -3.86757,-59.54012 l -0.29957,-2.27365 z"
       id="path6223"
       inkscape:connector-curvature="0" />
    <path
       style="fill:#ffffff;fill-opacity:1;stroke:none"
       d="m 261.2388,337.48893 c -0.15645,0.0218 1.6514,13.52111 4.02526,29.99631 l 4.31673,29.95454 17.18278,10.79277 17.18278,10.79276 -0.75628,-8.06917 c -0.41122,-4.43641 -2.25933,-18.87423 -4.10545,-32.08363 l -3.34881,-24.01425 -17.10241,-8.70525 c -9.4106,-4.78554 -17.23797,-8.68646 -17.39351,-8.66428 z"
       id="path6225"
       inkscape:connector-curvature="0" />
    <path
       style="fill:#ffffff;fill-opacity:1;stroke:none"
       d="m 356.49912,333.0757 c -0.28681,-0.21527 -54.49814,21.84019 -54.73513,22.26854 -0.0396,0.0693 1.74739,14.24731 3.96142,31.49011 3.97149,30.92848 4.02399,31.34594 5.17838,30.86115 0.64338,-0.2717 12.71879,-5.51253 26.8311,-11.63185 l 25.65567,-11.12744 -0.55076,-6.63362 c -0.98356,-11.5156 -5.9737,-54.95182 -6.34068,-55.22689 z"
       id="path6227"
       inkscape:connector-curvature="0" />
    <path
       style="fill:#ffffff;fill-opacity:1;stroke:none"
       d="m 203.02487,361.04629 c -0.0251,0 -0.0216,0.0297 -0.0198,0.0436 -0.0178,0.48202 1.75552,10.82762 3.95387,22.97753 l 4.0037,22.07924 1.79613,1.48606 c 0.98661,0.81156 6.92724,5.69988 13.21344,10.86426 l 11.43637,9.37602 -1.48003,-11.7477 c -0.81365,-6.46845 -2.533,-17.91672 -3.8476,-25.42803 l -2.38556,-13.65795 -13.31882,-8.41396 c -7.51808,-4.74455 -13.00396,-7.85114 -13.35765,-7.57706 z"
       id="path6229"
       inkscape:connector-curvature="0" />
    <path
       style="fill:#ffffff;fill-opacity:1;stroke:none"
       d="m 235.07859,380.44749 1.47192,11.68928 c 0.80934,6.43815 2.56485,18.13911 3.92781,25.99104 l 2.47438,14.2786 14.80154,12.14259 14.82078,12.14 -0.77284,-8.18602 c -0.42326,-4.50373 -2.03995,-17.32736 -3.59586,-28.51303 l -2.8252,-20.34682 -15.15109,-9.59782 -15.15073,-9.59802 z"
       id="path6231"
       inkscape:connector-curvature="0" />
    <path
       style="fill:#ffffff;fill-opacity:1;stroke:none"
       d="m 468.162,354.51506 c -1.9639,0.42004 -7.34242,2.67349 -20.76301,8.50803 -11.80497,5.1327 -21.49717,9.37938 -21.53941,9.45107 -0.0432,0.0713 0.65144,10.57493 1.5505,23.34034 0.89924,12.7654 1.68933,24.88323 1.76628,26.9331 0.1313,3.48048 0.21668,3.69733 1.25545,3.10719 0.6119,-0.34736 9.57946,-5.26757 19.92346,-10.92268 10.34366,-5.65532 19.0219,-10.56246 19.29125,-10.91179 0.51012,-0.66243 0.0378,-47.69105 -0.49501,-49.3696 -0.063,-0.19804 -0.33482,-0.27547 -0.98951,-0.13467 z"
       id="path6233"
       inkscape:connector-curvature="0" />
    <path
       style="fill:#ffffff;fill-opacity:1;stroke:none"
       d="m 421.47973,374.52502 c -0.4249,-0.15645 -52.98467,22.63236 -53.30761,23.11418 -0.12238,0.18021 1.0393,11.41064 2.57328,24.95651 1.53379,13.54566 2.91779,26.67744 3.07729,29.18121 0.16001,2.50357 0.44683,4.52948 0.64264,4.50175 0.19816,-0.0297 11.72568,-6.27517 25.62025,-13.8746 l 25.25397,-13.80252 0.0503,-2.0067 c 0.0665,-3.79556 -3.55001,-51.93635 -3.9098,-52.06983 z"
       id="path6235"
       inkscape:connector-curvature="0" />
    <path
       style="fill:#ffffff;fill-opacity:1;stroke:none"
       d="m 270.19271,402.83705 c -0.31001,-0.0693 1.30327,13.01176 3.59568,29.06754 l 4.16947,29.20339 17.40681,14.30474 c 9.57424,7.87114 17.57765,14.29939 17.78139,14.29147 0.20407,0 -1.00642,-10.97852 -2.68963,-24.38577 -1.68196,-13.40743 -3.58346,-28.03339 -4.22484,-32.50207 l -1.18515,-8.12701 -17.15256,-10.85653 c -9.4356,-5.97059 -17.39658,-10.92308 -17.7064,-10.99516 z"
       id="path6237"
       inkscape:connector-curvature="0" />
    <path
       style="fill:#ffffff;fill-opacity:1;stroke:none"
       d="m 363.9005,399.6154 c -0.23483,-0.17625 -16.04852,6.58312 -52.39828,22.40996 -0.97674,0.42558 -0.74965,2.51664 3.52035,32.42445 2.52076,17.65591 4.79627,31.82459 5.07606,31.66775 0.27836,-0.15447 11.7834,-6.44073 25.56703,-13.9659 l 25.05455,-13.67518 -0.51299,-3.76804 c -0.29507,-2.0667 -1.76791,-15.25392 -3.27401,-29.31132 -1.50573,-14.05739 -2.86655,-25.6621 -3.02766,-25.78271 z"
       id="path6239"
       inkscape:connector-curvature="0" />
    <path
       style="fill:#ffffff;fill-opacity:1;stroke:none"
       d="m 232.35282,222.12163 -21.62195,6.78947 c -11.89345,3.73991 -21.75341,6.96433 -21.90499,7.16672 -0.1511,0.20121 0.17447,0.56064 0.72608,0.7874 0.5522,0.22635 6.21877,2.95073 12.58464,6.04386 6.36551,3.09312 11.9936,5.56877 12.5093,5.51986 0.51589,-0.0475 10.43355,-3.47395 22.03805,-7.62102 11.60466,-4.14728 21.28175,-7.7347 21.49195,-7.97888 0.20983,-0.24437 -5.51355,-2.76795 -12.71717,-5.58937 l -13.10591,-5.11804 z"
       id="path6241"
       inkscape:connector-curvature="0" />
    <path
       style="fill:#ffffff;fill-opacity:1;stroke:none"
       d="m 309.09347,252.19004 -23.42153,9.44236 c -12.8896,5.19409 -23.41379,9.60614 -23.37153,9.79169 0.11328,0.50242 28.84176,14.27365 29.56497,14.17265 0.34145,-0.0475 12.10454,-4.43541 26.12965,-9.74951 14.02547,-5.3143 25.56683,-9.76179 25.65585,-9.88022 0.0881,-0.11684 -7.64954,-3.26066 -17.19428,-6.98948 l -17.36313,-6.78749 z"
       id="path6243"
       inkscape:connector-curvature="0" />
    <path
       style="fill:#ffffff;fill-opacity:1;stroke:none"
       d="m 263.85561,235.44351 c -0.68851,0.26557 -10.61715,3.82448 -22.05748,7.90145 -11.4403,4.07637 -21.07191,7.5325 -21.39502,7.68736 -0.32296,0.15645 7.67164,4.24272 17.74845,9.06886 l 18.31936,8.76944 17.99374,-7.24179 c 9.90418,-3.97913 20.37623,-8.17829 23.25807,-9.33997 2.88164,-1.16128 4.98688,-2.28851 4.69037,-2.5111 -0.29668,-0.222 -8.81237,-3.65119 -18.92677,-7.6131 -12.54687,-4.91486 -18.77663,-7.05187 -19.63072,-6.72115 z"
       id="path6245"
       inkscape:connector-curvature="0" />
    <path
       sodipodi:nodetypes="ccccc"
       style="fill:#ffffff;fill-opacity:1;stroke:none"
       d="m 318.78349,206.68848 -40.88605,22.66879 40.43275,10.16401 41.50353,-27.52246 -41.05023,-5.31034 z"
       id="path6247"
       inkscape:connector-curvature="0" />
    <path
       sodipodi:nodetypes="ccccc"
       style="fill:#ffffff;fill-opacity:1;stroke:none"
       d="m 375.7855,182.5962 -35.86049,13.15752 30.3455,20.15987 40.1233,-16.30173 -34.60831,-17.01566 z"
       id="path6249"
       inkscape:connector-curvature="0" />
    <path
       sodipodi:nodetypes="ccccc"
       style="fill:#ffffff;fill-opacity:1;stroke:none"
       d="m 290.43011,183.5236 -59.20793,10.11846 25.71375,20.30305 57.17678,-13.14622 -23.6826,-17.27529 z"
       id="path6251"
       inkscape:connector-curvature="0" />
    <path
       sodipodi:nodetypes="ccccc"
       style="fill:#ffffff;fill-opacity:1;stroke:none"
       d="m 417.76141,193.04835 -36.83258,22.41332 38.3322,8.52209 42.82137,-24.34754 -44.32099,-6.58787 z"
       id="path6253"
       inkscape:connector-curvature="0" />
    <path
       style="fill:#ffffff;fill-opacity:1;stroke:none"
       d="m 370.98598,227.35532 -27.7181,11.10508 c -15.24496,6.10941 -27.6942,11.27538 -27.66578,11.47401 0.0287,0.19803 7.80129,3.37552 17.26621,7.0782 l 17.19716,6.73184 28.80201,-10.86386 c 15.8333,-5.98247 28.8813,-11.01556 28.99585,-11.16884 0.11505,-0.15447 -8.1336,-3.44761 -18.33052,-7.32238 l -18.54683,-7.03405 z"
       id="path6255"
       inkscape:connector-curvature="0" />
    <path
       sodipodi:nodetypes="ccccc"
       style="fill:#ffffff;fill-opacity:1;stroke:none"
       d="m 462.31885,204.82001 -42.20066,24.52815 4.28113,54.58469 38.66898,-24.71689 -0.74945,-54.39595 z"
       id="path6257"
       inkscape:connector-curvature="0" />
  </g>
  <flowRoot
     xml:space="preserve"
     id="flowRoot3267"
     style="font-size:300px;font-style:normal;font-variant:normal;font-weight:normal;font-stretch:normal;line-height:1000%;letter-spacing:0px;word-spacing:0px;fill:#000000;fill-opacity:1;stroke:none;font-family:Lucida Fax;-inkscape-font-specification:Lucida Fax"><flowRegion
       id="flowRegion3269"><rect
         id="rect3271"
         width="293.92136"
         height="371.08987"
         x="9.0786514"
         y="26.101124"
         style="font-style:normal;font-variant:normal;font-weight:normal;font-stretch:normal;line-height:1000%;font-family:Lucida Fax;-inkscape-font-specification:Lucida Fax;font-size:300px" /></flowRegion><flowPara
       id="flowPara3273"
       style="font-size:300px">P</flowPara></flowRoot>  <g
     style="font-size:300px;font-style:normal;font-variant:normal;font-weight:normal;font-stretch:normal;line-height:125%;letter-spacing:0px;word-spacing:0px;fill:#000000;fill-opacity:1;stroke:none;font-family:Lucida Fax;-inkscape-font-specification:Lucida Fax"
     id="text3279">
    <path
       d="m 125.32935,242.20789 0,107.8125 37.73438,0 0,34.6875 -141.796877,0 0,-34.6875 34.6875,0 0,-277.500004 -34.6875,0 0,-34.6875 150.703127,0 c 37.03104,3.47e-4 65.70289,8.047214 86.01562,24.140625 20.46848,16.094056 30.70284,38.672159 30.70313,67.734379 -2.9e-4,36.87521 -12.34403,64.84394 -37.03125,83.90625 -24.68773,19.06265 -60.85956,28.59389 -108.51563,28.59375 l -17.8125,0 m 0,-34.6875 11.48438,0 c 27.03109,1.7e-4 47.26544,-6.40607 60.70312,-19.21875 13.59354,-12.96854 20.39041,-32.34353 20.39063,-58.125 -2.2e-4,-19.21848 -5.78146,-33.593466 -17.34375,-43.125004 -11.56269,-9.687193 -28.98455,-14.530938 -52.26563,-14.53125 l -22.96875,0 0,135.000004"
       style="font-size:480px;font-weight:600;-inkscape-font-specification:Lucida Fax Semi-Bold"
       id="path3512" />
  </g>
  <g
     style="font-size:300px;font-style:normal;font-variant:normal;font-weight:normal;font-stretch:normal;line-height:125%;letter-spacing:0px;word-spacing:0px;fill:#000000;fill-opacity:1;stroke:none;font-family:Courier;-inkscape-font-specification:Courier"
     id="text3283">
    <path
       d="m 49.48032,539.19314 c 10.811989,4.02799 20.564011,5.088 31.164,5.088 32.22397,0 50.032,-14.20403 50.032,-39.644 0,-20.98798 -12.08403,-32.43601 -37.736,-37.736 -21.411979,-4.452 -33.284,-5.51202 -33.284,-16.324 0,-8.48 7.844013,-15.264 20.776,-15.264 9.96399,0 17.384004,4.664 21.624,12.932 2.544,5.08799 3.39201,9.752 11.872,9.752 8.05599,0 10.6,-3.18001 10.6,-11.024 0,-0.424 0,-0.63601 0,-1.06 l -0.424,-19.928 c -0.212,-8.904 -1.90801,-11.024 -8.692,-11.024 -5.72399,0 -8.268,0.636 -10.6,5.724 -8.903991,-3.816 -17.59601,-5.724 -27.136,-5.724 -28.195972,0 -47.7,16.53602 -47.7,40.068 0,20.98797 12.296023,28.832 35.616,34.98 23.319977,6.14799 35.192,6.14801 35.192,19.504 0,9.75199 -7.632013,15.052 -20.14,15.052 -13.991986,0 -23.320006,-5.08802 -28.832,-15.9 -3.815996,-7.42 -4.876008,-13.356 -12.932,-13.356 -8.691991,0 -11.66,3.392 -11.66,12.296 0,0.42399 0,0.636 0,1.06 l 0.636,24.38 c 0.212,8.69199 3.392008,11.236 11.872,11.236 4.663995,0 7.420002,-1.06001 9.752,-5.088"
       style="font-size:212px;font-weight:bold;font-family:Courier 10 Pitch;-inkscape-font-specification:Courier 10 Pitch Bold"
       id="path3515" />
    <path
       d="m 192.69957,442.09714 14.628,0 c 16.32398,0 24.592,5.30001 24.592,15.688 0,10.38798 -8.26802,16.112 -24.592,16.112 l -14.628,0 0,-31.8 m 17.596,-23.744 -42.824,0 c -8.47999,0 -12.72,3.18 -12.72,11.448 0,7.41999 4.02801,11.448 11.236,11.448 0.424,0 1.06,0 1.484,0 l 0,77.168 c -0.636,0 -1.06,0 -1.696,0 -6.99599,0 -11.024,4.028 -11.024,11.236 0,8.47999 4.24001,11.448 12.72,11.448 l 35.616,0 c 8.47999,0 12.72,-2.96801 12.72,-11.448 0,-8.48 -4.24001,-11.236 -12.72,-11.236 l -10.388,0 0,-21.2 17.596,0 c 34.13197,0 51.304,-13.99203 51.304,-40.492 0,-25.01598 -17.17203,-38.372 -51.304,-38.372"
       style="font-size:212px;font-weight:bold;font-family:Courier 10 Pitch;-inkscape-font-specification:Courier 10 Pitch Bold"
       id="path3517" />
    <path
       d="m 305.39082,518.41714 4.452,-12.084 44.732,0 4.24,12.084 -3.604,0 c -8.69199,0 -13.144,2.544 -13.144,11.236 0,8.69199 4.45201,11.448 13.144,11.448 l 31.164,0 c 8.69199,0 13.144,-2.75601 13.144,-11.448 0,-7.42 -4.02801,-11.236 -11.448,-11.236 -0.424,0 -1.06,0 -1.696,0 l -32.86,-89.888 c -2.756,-7.632 -3.60401,-10.176 -12.932,-10.176 l -38.796,0 c -8.90399,0 -13.144,2.968 -13.144,11.448 0,8.69199 4.24001,11.448 12.932,11.448 l 8.48,0 -27.772,77.168 c -0.636,0 -1.272,0 -1.696,0 -7.41999,0 -11.448,3.816 -11.448,11.236 0,8.69199 4.45201,11.448 13.144,11.448 l 26.712,0 c 8.69199,0 13.144,-2.75601 13.144,-11.448 0,-8.692 -4.45201,-11.236 -13.144,-11.236 l -3.604,0 m 11.66,-33.496 15.052,-43.672 15.052,43.672 -30.104,0"
       style="font-size:212px;font-weight:bold;font-family:Courier 10 Pitch;-inkscape-font-specification:Courier 10 Pitch Bold"
       id="path3519" />
    <path
       d="m 494.19007,421.74514 c -10.17599,-4.452 -19.71601,-6.784 -29.68,-6.784 -35.40396,0 -59.996,28.40803 -59.996,64.66 0,38.15996 24.16804,64.872 60.632,64.872 28.61997,0 52.152,-14.41602 52.152,-25.44 0,-6.784 -4.24001,-11.872 -9.54,-11.872 -9.32799,0 -20.98802,14.416 -40.492,14.416 -21.19998,0 -33.072,-14.62803 -33.072,-41.976 0,-27.55998 11.87202,-41.976 32.86,-41.976 15.26398,0 21.624,6.36001 25.016,18.444 1.908,6.57199 4.24001,9.752 10.6,9.752 8.69199,0 10.812,-3.18001 10.812,-12.084 l -0.212,-26.924 c 0,-8.904 -2.75601,-11.66 -9.328,-11.66 -4.664,0 -7.208,1.908 -9.752,6.572"
       style="font-size:212px;font-weight:bold;font-family:Courier 10 Pitch;-inkscape-font-specification:Courier 10 Pitch Bold"
       id="path3521" />
    <path
       d="m 630.41332,418.35314 -84.8,0 c -8.47999,0 -12.72,3.18 -12.72,11.448 0,7.41999 4.02801,11.448 11.236,11.448 0.424,0 1.06,0 1.484,0 l 0,77.168 c -0.636,0 -1.06,0 -1.696,0 -6.99599,0 -11.024,4.028 -11.024,11.236 0,8.47999 4.24001,11.448 12.72,11.448 l 84.8,0 c 8.69199,0 10.812,-1.90801 10.812,-9.328 l 0,-25.016 c 0,-8.692 -2.54401,-12.932 -11.024,-12.932 -8.26799,0 -11.236,4.028 -11.236,12.932 l 0,12.296 -48.124,0 0,-30.952 18.232,0 c 0,0.63599 0,1.272 0,1.908 0,7.41999 3.60401,11.024 10.6,11.024 7.84399,0 10.6,-4.24001 10.6,-12.932 l 0,-21.412 c 0,-8.692 -2.96801,-12.932 -10.812,-12.932 -6.99599,0 -10.6,3.816 -10.6,11.66 0,0.42399 0,0.848 0,1.272 l -18.02,0 0,-26.5 48.124,0 0,10.812 c 0,8.69199 2.75601,13.144 11.236,13.144 8.26799,0 11.024,-4.24001 11.024,-13.144 l 0,-23.108 c 0,-7.42 -2.12001,-9.54 -10.812,-9.54"
       style="font-size:212px;font-weight:bold;font-family:Courier 10 Pitch;-inkscape-font-specification:Courier 10 Pitch Bold"
       id="path3523" />
  </g>
  <path
     style="fill:#ff0000"
     d="m 655.64558,232.80394 c -17.05946,6.3602 -34.21209,12.96573 -50.60639,20.85253 -3.89634,3.24599 0.10395,9.84561 -0.84081,14.21575 1.65492,16.57133 1.18386,33.63298 4.42262,49.90223 7.13592,-1.45641 14.14697,-7.22048 21.22994,-10.2461 9.41635,-5.2175 19.41029,-9.87667 28.38348,-15.60678 -0.61138,-19.36699 1.24569,-39.0192 -1.02845,-58.23104 -0.23971,-0.58444 -0.91143,-1.07286 -1.56039,-0.88659 z"
     id="path3360"
     inkscape:connector-curvature="0" />
  <path
     style="fill:#ff0000"
     d="m 593.26531,178.58028 c -22.52865,8.29128 -45.79727,17.08637 -67.6807,26.88023 -1.90014,10.16953 1.82665,20.54667 2.20524,30.85871 1.9201,14.05791 2.36155,28.7576 5.3294,42.4454 6.56012,-0.007 12.92747,-5.04434 19.33844,-6.93161 15.32783,-6.77492 31.38838,-12.68339 46.23354,-20.0561 -0.43115,-24.31281 -1.51142,-48.74214 -4.53933,-72.842 -0.18738,-0.30346 -0.56831,-0.4691 -0.88659,-0.35463 z"
     id="path3362"
     inkscape:connector-curvature="0"
     sodipodi:nodetypes="cccccccc" />
  <path
     style="fill:#ff0000"
     d="m 510.99003,135.66946 c -22.72369,7.01575 -45.0426,15.07171 -66.74227,24.71805 -4.5433,4.10472 0.0439,11.46502 -0.44239,16.62097 3.00597,17.4163 4.21147,35.36608 9.13094,52.28458 6.19565,-0.37579 12.65819,-4.88603 18.92829,-6.625 15.4923,-6.61121 32.90038,-11.71215 47.75782,-19.44066 2.04969,-7.16489 -1.75193,-14.60556 -1.39784,-21.59726 -2.00901,-15.23418 -2.54205,-31.1946 -5.95786,-45.96068 -0.41191,-0.12937 -0.86102,-0.078 -1.27669,0 z"
     id="path3364"
     inkscape:connector-curvature="0"
     sodipodi:nodetypes="ccccccccc" />
  <path
     style="fill:#ff0000"
     d="m 647.95001,58.67824 c -17.37459,8.419622 -35.06158,17.781039 -51.11926,28.495179 -0.0284,20.937031 3.26726,42.176761 4.69756,63.107001 2.37744,3.09834 6.1903,-2.82019 8.90133,-3.15625 13.14751,-8.04426 26.70589,-15.83289 39.329,-24.46981 -0.27769,-21.1905 0.55856,-43.211343 -0.83312,-64.328592 -0.24387,-0.401187 -0.59801,0.263828 -0.97551,0.352472 z"
     id="path3366"
     inkscape:connector-curvature="0"
     sodipodi:nodetypes="ccccccc" />
  <path
     style="fill:#ff0000"
     d="m 527.62241,286.21195 c -21.12328,8.26196 -42.5463,16.66748 -62.98315,26.45576 -1.32894,12.09817 2.70536,24.47215 3.93645,36.49192 2.36821,12.65247 3.65574,26.40622 6.96777,38.7245 6.40042,0.36361 11.5074,-6.31906 17.44074,-8.37184 14.79261,-8.24594 30.60867,-15.36117 44.85167,-24.18201 -2.25179,-22.38821 -4.66658,-46.71558 -8.45225,-68.81988 -0.32654,-0.9077 -0.49341,-0.77152 -1.76123,-0.29845 z"
     id="path3368"
     inkscape:connector-curvature="0"
     sodipodi:nodetypes="cccccccc" />
  <path
     style="fill:#0066ff"
     d="m 404.17402,214.36293 c 1.99818,23.30713 5.43067,46.71479 9.82339,69.65028 13.33283,8.843 28.29945,18.87415 42.58786,26.02695 1.75217,-5.89928 -1.33977,-10.21563 -0.92893,-14.19844 -2.98172,-20.16211 -4.86207,-41.60237 -8.67789,-61.56307 -7.53611,-7.38287 -18.75365,-9.34383 -27.94355,-14.51407 -4.69132,-2.00725 -9.95095,-5.35583 -14.89418,-6.60525 z"
     id="path3372"
     inkscape:connector-curvature="0"
     sodipodi:nodetypes="cccccccc" />
  <path
     style="fill:#0066ff"
     d="m 348.80131,120.19208 c -1.06343,4.21228 1.11505,7.60041 0.50173,10.21623 3.11849,18.93158 5.60954,38.18117 10.18699,56.78959 12.64022,5.99475 25.06661,12.63586 37.98139,17.97999 2.12616,-4.32977 -0.95192,-10.71553 -0.76777,-15.67627 -2.56548,-17.11868 -3.60904,-34.3707 -7.65561,-51.06709 -12.60001,-6.13353 -26.79116,-14.40928 -40.24673,-18.24245 z"
     id="path3374"
     inkscape:connector-curvature="0"
     sodipodi:nodetypes="ccccccc" />
  <path
     style="fill:#0066ff"
     d="m 320.90576,172.83519 c 1.06207,16.55116 5.29627,33.25009 8.04889,49.77086 0.0393,7.72682 4.89192,13.69781 11.63335,16.90049 7.85194,4.5943 15.29538,10.17108 23.54775,13.93715 2.60015,1.85352 -0.54085,-9.92734 -0.4592,-14.35665 -2.85369,-16.15727 -5.66105,-34.34165 -9.29055,-50.21749 -9.543,-8.21183 -21.47517,-10.42612 -32.66458,-16.17621 l -0.14185,-0.0355 -0.67381,0.17732 z"
     id="path3376"
     inkscape:connector-curvature="0"
     sodipodi:nodetypes="cccccccccc" />
  <path
     style="fill:#0066ff"
     d="m 371.65401,263.76356 c 2.39508,20.28291 5.14727,40.44183 9.92977,60.28792 4.3258,7.20289 13.19035,10.64042 19.00675,16.58926 5.76196,3.92105 11.06534,10.43237 17.43118,12.9682 1.10332,-6.09233 -1.17484,-10.6097 -0.71037,-15.25412 -2.38014,-17.54692 -4.22755,-35.35228 -7.39223,-52.67482 -12.39545,-7.53822 -24.67739,-15.26491 -37.2012,-22.59024 l -0.95872,0.60719 -0.10518,0.0666 z"
     id="path3378"
     inkscape:connector-curvature="0"
     sodipodi:nodetypes="cccccccccc" />
  <path
     style="fill:#f5fb2a;fill-opacity:1"
     d="m 461.90857,113.64664 c -18.54246,6.49596 -38.81492,13.77549 -56.40062,22.26998 0.16936,4.13142 8.19648,4.47709 10.90097,6.73915 8.41481,3.64619 16.65621,8.48897 25.46279,10.81636 20.80158,-7.07611 42.90779,-15.15219 63.17468,-23.4212 0.26299,-3.35279 -7.6184,-2.6136 -9.76668,-4.48856 -11.02931,-4.15165 -21.88246,-9.38774 -33.37114,-11.91573 z"
     id="path3386"
     inkscape:connector-curvature="0"
     sodipodi:nodetypes="ccccccc" />
  <path
     style="fill:#ff6600"
     d="m 654.22704,154.5715 c -18.59238,6.77148 -37.55016,13.57084 -55.46489,21.8455 0.42284,24.01886 1.86687,48.21642 4.39748,72.09727 3.01176,2.8852 7.8438,-2.20807 11.29803,-2.56056 14.11431,-6.11496 28.75985,-11.6215 42.46461,-18.29197 1.19731,-23.35635 0.60509,-46.9632 -0.67381,-70.25316 0.26807,-1.31648 0.57735,-4.0113 -2.02142,-2.83708 z"
     id="path3388"
     inkscape:connector-curvature="0"
     sodipodi:nodetypes="ccccccc" />
  <path
     style="fill:#ff6600"
     d="m 599.23686,256.35278 c -21.43772,8.53723 -44.23975,17.69567 -65.44381,26.9157 1.30338,15.98751 6.40033,56.69278 7.62736,69.43696 13.72835,-5.05537 58.363,-27.42853 62.5745,-32.63884 -0.60035,-8.03733 -3.53795,-59.59393 -4.75805,-63.71382 z"
     id="path3390"
     inkscape:connector-curvature="0"
     sodipodi:nodetypes="ccccc" />
  <path
     style="fill:#7137c8;fill-opacity:1"
     d="m 359.98652,192.90752 c 2.56171,20.9572 5.83452,41.8913 10.24895,62.52212 6.03761,8.33357 16.86169,11.68857 25.03722,17.62536 4.17023,1.54598 8.80493,6.87757 13.20825,6.52419 2.16724,-6.02747 -2.1241,-13.46355 -1.98656,-19.80248 -2.49263,-15.90193 -3.96598,-33.68745 -7.5144,-49.20459 -11.04873,-8.57033 -24.34143,-12.09266 -37.04297,-18.09016 -0.66416,-0.16688 -1.63312,-0.72709 -1.95049,0.42556 z"
     id="path3394"
     inkscape:connector-curvature="0"
     sodipodi:nodetypes="cccccccc" />
  <path
     style="fill:#f5fb2a;fill-opacity:1"
     d="m 438.04165,33.073605 c -22.63767,3.622416 -45.61219,6.63098 -68.01896,11.419242 -3.7263,2.894741 3.72672,5.563581 5.2449,7.662955 8.07651,5.834773 15.78267,13.381975 24.75721,17.445191 22.40084,-4.804046 46.67587,-9.040784 68.61751,-15.195832 0.72763,-4.19193 -7.73596,-5.852029 -9.92545,-8.600165 -6.75185,-4.22322 -13.10915,-10.287167 -20.67521,-12.731391 z"
     id="path3396"
     inkscape:connector-curvature="0"
     sodipodi:nodetypes="ccccccc" />
  <path
     style="fill:#ff6600"
     d="m 519.53673,208.33414 c -22.18394,7.98855 -45.02747,16.14681 -66.47494,25.81741 1.44321,23.85265 5.37281,47.79765 9.34327,71.35253 1.98296,5.6746 8.40317,-0.83324 11.98365,-1.21269 17.94965,-7.55918 36.71611,-14.72265 54.03189,-23.37246 0.93341,-16.87588 -3.13206,-33.64995 -4.60518,-50.538 -1.54624,-7.2099 -0.88738,-15.59153 -3.81766,-22.08225 -0.15432,0.004 -0.31073,-0.0171 -0.46103,0.0355 z"
     id="path3398"
     inkscape:connector-curvature="0"
     sodipodi:nodetypes="ccccccccc" />
  <path
     style="fill:#ff6600"
     d="m 569.00829,113.57571 c -17.32658,6.43292 -35.14511,11.96423 -51.88307,19.61131 -0.35259,17.08365 3.18599,34.46812 4.63146,51.61878 1.75963,5.09394 -1.05733,12.76557 3.33144,16.52403 22.80329,-8.33443 45.71529,-17.92101 68.35451,-26.79239 0.0915,-22.09165 -2.039,-44.80118 -4.50386,-66.99052 -6.28201,0.0269 -13.43805,4.3717 -19.93048,6.02879 z"
     id="path3400"
     inkscape:connector-curvature="0"
     sodipodi:nodetypes="ccccccc" />
  <path
     style="fill:#0066ff"
     d="m 393.5906,140.56558 c -1.09202,8.264 2.52047,18.14138 3.10469,26.68353 1.94988,13.67272 3.58514,27.46732 6.59215,40.87225 13.9786,6.55501 27.95784,14.97372 42.28885,20.33804 1.62511,-5.34049 -1.43561,-11.51086 -1.1918,-16.85306 -2.51385,-17.31115 -3.99896,-35.07071 -7.12304,-52.10542 -14.57848,-5.23995 -28.87101,-14.73133 -43.67085,-18.93534 z"
     id="path3402"
     inkscape:connector-curvature="0"
     sodipodi:nodetypes="ccccccc" />
  <path
     style="fill:#0066ff"
     d="m 333.60169,241.03147 c -2.98919,2.62239 1.39985,8.04864 0.85112,11.52563 3.09778,13.88008 4.17624,28.55351 8.68856,41.9533 10.01718,8.56622 21.34359,18.88954 32.39238,25.70778 1.05005,-4.9083 -1.7201,-11.80825 -1.45585,-16.6741 -2.50754,-14.47771 -4.11201,-29.38228 -7.8498,-43.57511 -10.08973,-7.11498 -20.6448,-14.70394 -32.30724,-18.97296 l -0.17731,0 -0.14186,0.0355 z"
     id="path3408"
     inkscape:connector-curvature="0"
     sodipodi:nodetypes="cccccccccc" />
  <path
     style="fill:#7137c8"
     d="m 306.96862,101.34081 c 1.03882,13.86607 4.94008,27.96096 7.11545,41.89054 1.63819,7.99611 2.86984,16.22574 5.15491,24.00061 11.41123,5.01031 22.12016,12.74911 34.15133,15.81672 2.12802,-3.70733 -1.23171,-9.37394 -0.9876,-13.64034 -2.99337,-17.17341 -5.08517,-34.82865 -9.08402,-51.75433 -11.6291,-6.08236 -23.62208,-11.82243 -35.85359,-16.52598 l -0.49648,0.21278 z"
     id="path3414"
     inkscape:connector-curvature="0" />
  <path
     style="fill:#7137c8"
     d="m 414.60029,290.36118 c 2.02735,22.08424 5.4888,44.69449 8.8304,66.63588 7.76616,9.75316 19.48418,16.04808 28.92027,24.26909 4.70376,2.7368 9.75866,9.3562 14.98082,10.41095 1.48351,-0.77568 -1.51235,-13.89794 -1.233,-19.95447 -2.69868,-19.0632 -4.25691,-38.53016 -8.69407,-57.17536 -13.74459,-8.63964 -27.83798,-17.25904 -42.20154,-24.78897 z"
     id="path3416"
     inkscape:connector-curvature="0"
     sodipodi:nodetypes="cccccccc" />
  <path
     style="fill:#00d400;fill-opacity:1"
     d="m 537.02023,84.885754 c -21.46424,6.205816 -41.92108,16.030666 -62.94768,23.725066 -2.52698,0.43664 -6.13938,3.07704 -2.65436,3.70783 12.97731,5.64082 27.89125,11.81024 41.27409,15.90348 23.28878,-8.15666 47.17004,-17.142 70.03822,-26.38375 -1.22207,-3.726819 -8.54627,-3.297827 -11.73625,-5.497921 -11.16765,-3.748765 -21.85284,-9.771597 -33.51299,-11.525632 z"
     id="path3418"
     inkscape:connector-curvature="0"
     sodipodi:nodetypes="cccccccc" />
  <path
     style="fill:#00d400"
     d="m 382.25759,101.90823 c -8.86054,3.25986 -18.20224,5.80254 -26.56215,10.0007 1.86424,4.57478 8.82581,5.64863 12.72083,8.44559 10.0477,4.73658 20.22569,10.06526 30.47369,13.86094 18.60047,-7.42629 37.9052,-13.98836 55.99684,-22.44839 -1.19822,-3.8571 -7.84899,-3.52316 -10.91121,-5.68375 -12.14927,-4.50381 -24.10875,-9.662161 -36.68078,-12.863647 -8.34574,2.896184 -16.69148,5.792368 -25.03722,8.688557 z"
     id="path3420"
     inkscape:connector-curvature="0" />
  <path
     style="fill:#f5fb2a;fill-opacity:1"
     d="m 543.03971,31.592775 c -14.48408,4.788659 -28.93359,9.906453 -43.125,15.53125 -1.36028,2.264864 2.71011,3.078613 3.89183,4.44939 10.66851,7.142654 21.62258,13.89747 32.4363,20.847485 5.33845,-1.069828 10.43364,-3.935041 15.67808,-5.702933 2.7948,-1.093814 5.58961,-2.187628 8.38442,-3.281442 -3.37186,2.27155 -8.20091,3.957342 -10.91024,7.010263 0.3022,2.457242 4.65256,1.916251 6.45988,2.757943 13.19231,2.935861 26.40219,6.226776 39.73161,8.325544 3.91324,0.0038 6.88491,-3.381335 10.42187,-4.703125 14.25707,-7.904705 28.77192,-15.471529 42.875,-23.578125 1.24,-2.434658 -2.76885,-2.032404 -4.18632,-2.427004 -16.83133,-2.41176 -33.69981,-5.0967 -50.5388,-7.133491 -3.6886,2.021084 -7.3,4.247852 -10.96238,6.341745 -13.20666,-6.148501 -26.22599,-12.786081 -39.64062,-18.4375 l -0.42188,-0.01563 -0.0937,0.01563 z"
     id="path3500"
     inkscape:connector-curvature="0"
     sodipodi:nodetypes="cccccccccccccccccc" />
  <path
     style="fill:#f5fb2a;fill-opacity:1"
     d="m 473.58659,59.6709 c -16.26098,8.872568 -32.88649,17.165074 -48.82813,26.5625 -0.97835,2.354916 2.8017,2.200912 4.14063,2.90625 14.58353,3.960449 29.31663,7.394554 44,10.9375 4.28236,-1.634884 8.00402,-4.828443 12.05859,-7.057623 13.26709,-8.321209 26.53207,-16.650633 39.64453,-25.208002 1.3875,-2.613058 -3.14804,-2.066608 -4.6875,-2.546875 -15.42536,-1.891904 -30.88823,-4.151295 -46.32812,-5.59375 z"
     id="path3502"
     inkscape:connector-curvature="0" />
  <path
     style="fill:#00d400"
     d="m 351.99284,82.717775 c -11.96773,3.710057 -24.06761,7.187836 -35.89063,11.25 -2.10016,1.942498 1.54436,3.337356 2.96875,3.96875 9.37905,4.549025 18.83174,9.102295 28.60938,12.703125 17.78513,-5.6611 35.40752,-11.952108 52.95312,-18.359375 1.97579,-1.409476 -1.05903,-3.272745 -2.54687,-3.484375 -9.71335,-3.850966 -19.39568,-8.078534 -29.34375,-11.15625 -5.58334,1.692708 -11.16667,3.385416 -16.75,5.078125 z"
     id="path3504"
     inkscape:connector-curvature="0" />
  <path
     style="fill:#00d400"
     d="m 485.21723,8.0527624 c -6.88562,2.7388056 -14.60851,4.8237726 -20.875,8.4062496 -0.86567,3.27786 4.64578,4.994672 6.36819,7.382644 7.25537,5.181851 13.93692,12.173453 22.06931,15.617356 13.78816,-3.775375 27.53671,-7.885175 41.0625,-12.5 1.54835,-3.108981 -4.3821,-4.776127 -5.65625,-7.1875 -7.56554,-6.217554 -14.61093,-13.5963538 -22.625,-18.93749955 -6.78125,2.40624995 -13.5625,4.81249995 -20.34375,7.21874995 z"
     id="path3506"
     inkscape:connector-curvature="0" />
</svg>
